<?xml version="1.0" encoding="UTF-8" standalone="no"?>
<!-- Created with Inkscape (http://www.inkscape.org/) -->

<svg
   xmlns:dc="http://purl.org/dc/elements/1.1/"
   xmlns:cc="http://creativecommons.org/ns#"
   xmlns:rdf="http://www.w3.org/1999/02/22-rdf-syntax-ns#"
   xmlns:svg="http://www.w3.org/2000/svg"
   xmlns="http://www.w3.org/2000/svg"
   xmlns:sodipodi="http://sodipodi.sourceforge.net/DTD/sodipodi-0.dtd"
   xmlns:inkscape="http://www.inkscape.org/namespaces/inkscape"
   width="25.170469mm"
   height="28.309204mm"
   viewBox="0 0 89.186702 100.3082"
   id="svg2"
   version="1.1"
   inkscape:version="0.91 r13725"
   sodipodi:docname="drawing.svg">
  <defs
     id="defs4" />
  <sodipodi:namedview
     id="base"
     pagecolor="#ffffff"
     bordercolor="#666666"
     borderopacity="1.0"
     inkscape:pageopacity="0.0"
     inkscape:pageshadow="2"
     inkscape:zoom="3.959798"
     inkscape:cx="48.936741"
     inkscape:cy="63.362658"
     inkscape:document-units="px"
     inkscape:current-layer="layer1"
     showgrid="false"
     showguides="false"
     fit-margin-top="0"
     fit-margin-left="0"
     fit-margin-right="0"
     fit-margin-bottom="0"
     inkscape:window-width="1680"
     inkscape:window-height="1005"
     inkscape:window-x="980"
     inkscape:window-y="519"
     inkscape:window-maximized="0" />
  <metadata
     id="metadata7">
    <rdf:RDF>
      <cc:Work
         rdf:about="">
        <dc:format>image/svg+xml</dc:format>
        <dc:type
           rdf:resource="http://purl.org/dc/dcmitype/StillImage" />
        <dc:title></dc:title>
      </cc:Work>
    </rdf:RDF>
  </metadata>
  <g
     inkscape:label="Layer 1"
     inkscape:groupmode="layer"
     id="layer1"
     transform="translate(-244.35665,-497.80148)">
    <path
       style="fill:none;stroke:#000000;stroke-width:34;stroke-miterlimit:10"
       inkscape:connector-curvature="0"
       class="st0"
       d="M -1607.1148,-265.00461"
       id="path3544" />
    <path
       id="path3548"
       d="m 267.27093,334.56682 c -0.8,0 -1.5,-0.7 -1.5,-1.5 l 0,-3.5 c 0,-0.8 0.7,-1.5 1.5,-1.5 0.8,0 1.5,0.7 1.5,1.5 l 0,3.5 c 0,0.8 -0.7,1.5 -1.5,1.5 z"
       inkscape:connector-curvature="0" />
    <path
       id="path3550"
       d="m 257.57093,338.06682 c -0.4,0 -0.8,-0.1 -1.1,-0.4 l -2.2,-2.2 c -0.6,-0.6 -0.6,-1.6 0,-2.2 0.6,-0.6 1.6,-0.6 2.2,0 l 2.2,2.2 c 0.6,0.6 0.6,1.6 0,2.2 -0.3,0.3 -0.7,0.4 -1.1,0.4 z"
       inkscape:connector-curvature="0" />
    <path
       id="path3552"
       d="m 253.47093,346.76682 -3.5,0 c -0.8,0 -1.5,-0.7 -1.5,-1.5 0,-0.8 0.7,-1.5 1.5,-1.5 l 3.5,0 c 0.8,0 1.5,0.7 1.5,1.5 0,0.8 -0.7,1.5 -1.5,1.5 z"
       inkscape:connector-curvature="0" />
    <path
       id="path3554"
       d="m 284.57093,346.76682 -3.5,0 c -0.8,0 -1.5,-0.7 -1.5,-1.5 0,-0.8 0.7,-1.5 1.5,-1.5 l 3.5,0 c 0.8,0 1.5,0.7 1.5,1.5 0,0.8 -0.6,1.5 -1.5,1.5 z"
       inkscape:connector-curvature="0" />
    <path
       id="path3556"
       d="m 277.17093,338.06682 c -0.4,0 -0.8,-0.1 -1.1,-0.4 -0.6,-0.6 -0.6,-1.6 0,-2.2 l 2.2,-2.2 c 0.6,-0.6 1.6,-0.6 2.2,0 0.6,0.6 0.6,1.6 0,2.2 l -2.2,2.2 c -0.3,0.3 -0.7,0.4 -1.1,0.4 z"
       inkscape:connector-curvature="0" />
    <path
       id="path3558"
       d="m 267.27093,365.76682 c -3.3,0 -5.9,-2.7 -5.9,-5.9 0,-2.3 -0.7,-4.5 -2,-6.1 -1.5,-1.9 -2.2,-4.2 -2.2,-6.5 0.1,-5.1 4.5,-9.5 9.6,-9.8 2.8,-0.1 5.5,0.8 7.5,2.8 2,1.9 3.2,4.6 3.2,7.3 0,2.2 -0.7,4.3 -2,6 -1.4,1.9 -2.2,4.1 -2.2,6.3 l 0,0.1 c -0.1,3.1 -2.7,5.8 -6,5.8 z m 0,-25.4 c -0.1,0 -0.3,0 -0.4,0 -3.5,0.2 -6.6,3.4 -6.7,6.9 0,1.7 0.5,3.2 1.5,4.6 1.7,2.2 2.7,5 2.7,8 0,1.7 1.3,2.9 2.9,2.9 1.6,0 2.9,-1.3 2.9,-2.9 l 0,-0.1 c 0,-2.8 1,-5.7 2.8,-8.1 0.9,-1.2 1.4,-2.7 1.4,-4.2 0,-2 -0.8,-3.8 -2.2,-5.1 -1.4,-1.3 -3.1,-2 -4.9,-2 z"
       inkscape:connector-curvature="0" />
    <g
       id="g4582"
       inkscape:export-xdpi="270"
       inkscape:export-ydpi="270">
      <g
         transform="translate(228.94236,488.10968)"
         id="g3560">
        <path
           inkscape:connector-curvature="0"
           d="m 86.6,110 -41.8,0 c -1.1,0 -1.9,-0.9 -1.9,-1.9 l 0,-5.5 c 0,-1.3 -1,-2.3 -2.3,-2.3 L 29,100 c -3,0 -5.3,-2.3 -5.3,-5.3 l 0,-20.1 -4,0 c -1.5,0 -2.8,-0.7 -3.6,-2 -0.8,-1.3 -0.9,-2.8 -0.3,-4.1 l 7.3,-15.4 c 0.5,-1.1 0.8,-2.3 0.8,-3.5 0,-0.3 0,-0.7 0,-0.9 0,-0.1 0,-0.1 0,-0.2 -0.4,-3.2 -0.4,-6.4 0.1,-9.4 l 0.3,-1.8 c 0,-0.1 0,-0.1 0,-0.2 l 0.4,-1.5 c 0.6,-2.4 1.6,-4.8 2.7,-7.1 5.3,-9.9 14.9,-16.2 27.9,-18.3 17.6,-2.7 39.9,5.3 46.8,25.4 0,0.1 0.4,1.5 0.6,1.9 0.1,0.4 0.4,1.7 0.4,1.7 3.9,14.7 0.2,27.9 -11.1,39.1 l -0.4,0.4 c -1.3,1.3 -3.3,3.3 -4.8,6.6 -2.5,5.8 -2.1,12.9 1.3,21.1 l 0.3,0.7 c 0.2,0.6 0.2,1.3 -0.2,1.8 -0.3,0.8 -0.9,1.1 -1.6,1.1 z m -39.9,-3.8 37.2,0 C 80.9,97.8 80.7,90.4 83.4,84.1 85.1,80 87.6,77.7 89,76.2 l 0.3,-0.3 C 99.5,65.7 102.9,53.7 99.4,40.4 99.4,40.4 99.1,39.2 99,38.8 98.9,38.4 98.5,37.1 98.5,37.1 92.3,19 71.9,11.8 55.8,14.3 44,16.2 35.4,21.8 30.7,30.6 c -1,2 -1.8,4.1 -2.4,6.3 l -0.3,1.3 -0.3,1.7 c -0.4,2.6 -0.4,5.4 -0.1,8.2 0.1,0.5 0.1,1.1 0.1,1.5 0,1.8 -0.4,3.5 -1.2,5.1 l -7.3,15.4 c -0.1,0.1 -0.1,0.3 0,0.5 0.1,0.1 0.2,0.2 0.4,0.2 l 4.9,0 c 1.6,0 2.9,1.3 2.9,3 l 0,20.9 c 0,0.9 0.7,1.5 1.5,1.5 l 11.6,0.2 c 3.3,0 6,2.8 6,6.2 l 0,3.6 z"
           id="path3562" />
      </g>
      <g
         transform="translate(1.875,-1.9642857)"
         id="g4569">
        <ellipse
           style="fill:#87bcde;fill-opacity:1;stroke:none;stroke-opacity:1"
           id="ellipse4567"
           cx="289.44354"
           cy="546.87927"
           rx="3.7053571"
           ry="3.4375" />
        <ellipse
           ry="3.4375"
           rx="3.7053571"
           cy="539.49109"
           cx="305.22018"
           id="ellipse4565"
           style="fill:#33032f;fill-opacity:1;stroke:none;stroke-opacity:1" />
        <ellipse
           style="fill:#ff595e;fill-opacity:1;stroke:none;stroke-opacity:1"
           id="ellipse4563"
           cx="303.79013"
           cy="526.76422"
           rx="3.7053571"
           ry="3.4375" />
        <ellipse
           ry="3.4375"
           rx="3.7053571"
           cy="523.39825"
           cx="288.32523"
           id="ellipse4561"
           style="fill:#313e50;fill-opacity:1;stroke:none;stroke-opacity:1" />
        <path
           inkscape:connector-curvature="0"
           d="m 286.69887,543.02104 c 9.6e-4,-7.4e-4 9.6e-4,-7.4e-4 9.6e-4,-7.4e-4 0.6729,-0.515 1.46344,-0.81689 2.35001,-0.89823 1.26454,-0.13113 2.43307,0.23712 3.46023,1.09402 1.03788,0.79564 1.60851,1.90266 1.66649,3.26865 0.14972,1.28289 -0.17014,2.45227 -0.94773,3.4771 -0.26269,0.31624 -0.52229,0.56722 -0.79948,0.77936 -0.72787,0.55707 -1.58592,0.85986 -2.54996,0.89742 -1.25439,0.12261 -2.40916,-0.22965 -3.38243,-1.05277 -1.05478,-0.86228 -1.65715,-1.92758 -1.77963,-3.15705 -0.17412,-1.30287 0.18522,-2.48504 1.07112,-3.48817 0.27218,-0.35534 0.57922,-0.66612 0.91042,-0.91959 z m 4.63328,6.28558 c 0.17062,-0.13058 0.33315,-0.28757 0.48474,-0.46876 0.47202,-0.62498 0.66481,-1.34547 0.56299,-2.17166 -0.004,-0.0254 -0.006,-0.0518 -0.006,-0.0777 -0.0295,-0.84363 -0.34423,-1.46672 -0.99004,-1.96297 -0.67885,-0.56418 -1.37556,-0.7873 -2.15898,-0.70684 -0.55946,0.0523 -1.02358,0.22713 -1.42694,0.53584 l -9.6e-4,7.3e-4 c -0.21172,0.16203 -0.41003,0.36535 -0.5903,0.60411 -0.0159,0.0198 -0.0319,0.0396 -0.0489,0.0579 -0.55059,0.6154 -0.7557,1.28316 -0.64718,2.10423 0.0774,0.77443 0.44949,1.41117 1.14111,1.97619 0.60577,0.51325 1.29063,0.71891 2.10513,0.64043 0.64552,-0.028 1.14373,-0.20085 1.57576,-0.5315 z"
           id="path3665" />
        <path
           inkscape:connector-curvature="0"
           d="m 269.89369,520.90784 c 1.55704,-1.19168 3.31631,-2.24786 5.23281,-3.14019 10.4734,-4.90172 20.97756,-5.27759 31.21758,-1.11486 3.02443,1.23658 5.7198,3.19184 8.01383,5.81196 4.0443,4.86445 4.80474,10.29223 2.27174,16.15198 -1.04728,2.54989 -2.62647,4.91575 -4.6861,7.01727 -1.83807,1.80084 -4.02778,3.49869 -6.55392,5.0986 -2.58477,1.53716 -5.34983,2.78033 -8.24292,3.7077 -2.85375,0.89953 -6.10103,1.59779 -9.65629,2.07782 -1.60708,0.1955 -3.02081,0.29606 -4.21352,0.30022 -1.8077,0.0383 -3.53558,-0.0943 -5.12138,-0.39484 -1.50693,-0.19945 -2.88517,-0.66942 -4.04642,-1.38959 -1.41637,-0.87429 -2.15827,-2.00407 -2.20347,-3.35635 -0.0836,-1.26379 0.50782,-2.49625 1.75905,-3.63499 0.0277,-0.0272 0.0587,-0.051 0.0936,-0.0747 0.34804,-0.24136 0.82906,-0.57237 1.44486,-0.99365 0.35607,-0.22098 0.6182,-0.39735 0.81032,-0.54439 0.0645,-0.0494 0.13371,-0.0887 0.20817,-0.11915 0.0459,-0.0192 0.0626,-0.032 0.0636,-0.0328 0.0588,-0.0935 0.10268,-0.13618 0.19134,-0.20252 1.33998,-0.99901 1.82718,-1.35067 2.03586,-1.48992 0.36093,-0.37703 0.75341,-0.90098 0.72661,-1.37762 -0.0349,-0.38629 -0.36263,-0.79861 -0.97063,-1.19496 -0.81508,-0.51145 -1.82642,-0.89316 -2.99473,-1.12745 -0.89552,-0.14522 -2.00178,-0.34894 -3.35146,-0.61721 -1.41446,-0.18458 -2.57214,-0.35349 -3.3867,-0.49096 -1.7317,-0.32677 -3.25846,-1.16508 -4.55493,-2.49565 -1.05265,-1.07536 -1.70708,-2.24632 -1.94379,-3.47551 -0.22642,-1.23556 0.002,-2.57161 0.67669,-3.97977 1.66113,-3.54111 4.07706,-6.54358 7.18017,-8.91851 z m 37.6967,26.09952 c 1.12023,-0.85736 2.15575,-1.74916 3.07622,-2.65068 1.88277,-1.92068 3.33349,-4.09197 4.29918,-6.4415 2.27875,-5.27107 1.62792,-9.93773 -1.98156,-14.2786 -2.09318,-2.39037 -4.56199,-4.18329 -7.3214,-5.31122 -9.75492,-3.9656 -19.77183,-3.60267 -29.77325,1.07803 -5.3513,2.49422 -9.22465,6.25214 -11.54402,11.19583 -0.50854,1.06446 -0.68728,2.02808 -0.5334,2.87278 0.16711,0.86792 0.65974,1.72846 1.46133,2.54807 1.04795,1.07516 2.21932,1.72241 3.58165,1.97948 0.77586,0.13147 1.91267,0.29589 3.36176,0.48807 1.38668,0.27405 2.47402,0.47482 3.38003,0.62187 1.41554,0.28304 2.63121,0.74557 3.64479,1.38171 1.10866,0.72177 1.70861,1.58884 1.79813,2.58512 0.0564,0.97083 -0.38753,1.92067 -1.31552,2.85295 -0.0707,0.07 -0.15282,0.12908 -0.24194,0.17304 -0.0165,0.0171 -0.31718,0.22229 -1.81992,1.34133 -0.08,0.0984 -0.17439,0.18803 -0.27906,0.26814 l 0,0 c -0.10753,0.0823 -0.22755,0.15521 -0.35995,0.21789 -0.22706,0.16772 -0.50224,0.3518 -0.83534,0.55823 -0.5492,0.37561 -1.00905,0.69269 -1.35125,0.92882 -0.80498,0.74644 -1.17457,1.45674 -1.12727,2.17308 0.0254,0.74906 0.46649,1.36406 1.35051,1.90915 0.94423,0.58614 2.08234,0.9701 3.38319,1.14388 1.51076,0.28367 3.11457,0.4067 4.81336,0.37064 1.13855,-0.004 2.47998,-0.0996 4.00554,-0.2858 3.44155,-0.46423 6.58757,-1.14032 9.33909,-2.00708 2.75856,-0.88428 5.39946,-2.07184 7.84577,-3.52652 1.10286,-0.70083 2.16791,-1.44018 3.14333,-2.18671 z"
           id="path3667" />
        <path
           inkscape:connector-curvature="0"
           d="m 302.46067,535.63003 0,0 c 0.58544,-0.44806 1.25343,-0.73877 1.9838,-0.86578 0.10191,-0.0174 0.20446,-0.017 0.30515,6.4e-4 1.33437,-0.16564 2.50619,0.19404 3.49118,1.07109 0.97251,0.75776 1.54582,1.81877 1.66029,3.115 0.18212,1.28462 -0.10443,2.47474 -0.85866,3.48851 -0.27357,0.33669 -0.55094,0.60505 -0.84963,0.83366 -0.67291,0.515 -1.47131,0.83731 -2.37196,0.95671 -1.30958,0.12772 -2.50532,-0.2038 -3.58456,-0.98219 -1.03565,-0.83827 -1.60065,-1.92308 -1.7209,-3.25657 -0.13561,-1.2179 0.20147,-2.3747 1.0045,-3.41975 0.28759,-0.36789 0.6029,-0.68272 0.94079,-0.94132 z m 2.15415,0.94016 c -0.39071,0.0876 -0.7376,0.24925 -1.05685,0.49359 l 0,0 c -0.21649,0.16569 -0.42201,0.37148 -0.60996,0.61309 -0.51145,0.66654 -0.72166,1.36625 -0.63569,2.1341 0.0778,0.8582 0.41168,1.50831 1.02076,2.00312 0.6827,0.48999 1.44251,0.70346 2.28263,0.62281 0.80855,-0.10803 1.48138,-0.47064 2.0048,-1.10769 0.44053,-0.59483 0.60936,-1.31592 0.48762,-2.1731 -0.0751,-0.8368 -0.40682,-1.45443 -1.02324,-1.93605 -0.64474,-0.57209 -1.30871,-0.77025 -2.13205,-0.66075 -0.0985,0.0109 -0.21467,0.0195 -0.33802,0.0109 z"
           id="path3669" />
        <path
           inkscape:connector-curvature="0"
           d="m 300.83505,523.00774 0,0 c 0.73265,-0.56072 1.55357,-0.8942 2.44107,-0.99217 1.32938,-0.12165 2.51564,0.21333 3.54145,0.9932 0.0278,0.0204 0.0535,0.0432 0.0782,0.0675 0.91058,0.87488 1.45261,1.96136 1.60893,3.2301 0.15147,1.26337 -0.17911,2.41974 -0.98443,3.44002 -0.74604,0.96505 -1.83487,1.58618 -3.15616,1.77288 -0.53665,0.0454 -1.0201,0.004 -1.48581,-0.11937 -0.71589,-0.0917 -1.40937,-0.39083 -2.0617,-0.88966 -1.04066,-0.85869 -1.61531,-1.95809 -1.73817,-3.28806 -0.003,-0.0321 -0.003,-0.0661 -0.003,-0.0987 -0.14599,-1.1463 0.15758,-2.25775 0.90389,-3.30562 0.0216,-0.0302 0.0438,-0.0586 0.0693,-0.0857 0.24868,-0.27217 0.51328,-0.51561 0.78617,-0.72447 z m 4.84778,1.40682 c -0.65458,-0.48196 -1.38306,-0.67925 -2.22731,-0.60301 -0.54553,0.0606 -1.04907,0.2671 -1.52316,0.62994 l 0,0 c -0.1754,0.13424 -0.34828,0.29156 -0.51303,0.46842 -0.47292,0.68025 -0.65041,1.35341 -0.54284,2.05243 0.009,0.0583 0.0117,0.11833 0.009,0.17637 0.0914,0.80764 0.43711,1.44945 1.05427,1.95778 0.38819,0.29629 0.79157,0.47183 1.20632,0.51666 0.0517,0.005 0.10018,0.015 0.14942,0.0289 0.28136,0.0795 0.57341,0.10756 0.86772,0.0831 0.78479,-0.11333 1.45382,-0.47001 1.93262,-1.09109 0.50986,-0.64486 0.70958,-1.33352 0.61571,-2.10971 -0.10301,-0.83665 -0.44029,-1.52886 -1.0289,-2.10981 z"
           id="path3671" />
        <path
           inkscape:connector-curvature="0"
           d="m 285.49723,519.57118 0,0 c 0.67194,-0.51427 1.45694,-0.82935 2.33099,-0.93597 1.21447,-0.14208 2.37734,0.20096 3.4607,1.01939 0.0176,0.0131 0.0335,0.0259 0.05,0.0406 0.91136,0.7947 1.48849,1.82703 1.71497,3.06861 0.13047,0.80123 0.0434,1.55981 -0.25806,2.27401 -0.16152,0.49498 -0.40614,0.93683 -0.73132,1.31303 -0.2601,0.33548 -0.57924,0.65323 -0.91999,0.91403 -0.6514,0.49854 -1.39691,0.80083 -2.21748,0.89911 -1.37829,0.13104 -2.58054,-0.19019 -3.59451,-0.9526 -0.032,-0.024 -0.062,-0.0503 -0.0902,-0.0772 -0.20806,-0.20453 -0.44185,-0.44167 -0.70002,-0.71167 -0.0287,-0.0296 -0.0556,-0.0628 -0.0803,-0.097 -0.48722,-0.67523 -0.78639,-1.47012 -0.89391,-2.36318 -0.14154,-1.3316 0.21296,-2.51613 1.05276,-3.53097 0.26022,-0.32344 0.55709,-0.61583 0.87634,-0.86016 z m 4.67888,1.505 c -0.70155,-0.52255 -1.39972,-0.7347 -2.13325,-0.64846 -0.55414,0.0671 -1.0292,0.25643 -1.44833,0.57721 l 0,0 c -0.20455,0.15655 -0.39733,0.34728 -0.57344,0.56771 -0.53383,0.64425 -0.74645,1.35567 -0.6577,2.18656 0.067,0.56183 0.24117,1.0439 0.53101,1.46322 0.20698,0.21597 0.39724,0.40911 0.56947,0.57968 0.64177,0.46524 1.38602,0.65046 2.27172,0.56599 0.74627,-0.0884 1.39328,-0.4699 1.93481,-1.1625 0.20269,-0.23621 0.33015,-0.47169 0.41902,-0.75266 0.0102,-0.0313 0.0207,-0.0621 0.0333,-0.0922 0.17838,-0.40859 0.22891,-0.83074 0.1539,-1.29018 -0.1496,-0.81236 -0.51026,-1.47076 -1.10049,-1.9944 z"
           id="path3673" />
        <ellipse
           style="fill:#0e7c7b;fill-opacity:1;stroke:none;stroke-opacity:1"
           id="path4537"
           cx="276.0578"
           cy="531.63007"
           rx="3.7053571"
           ry="3.4375" />
        <path
           inkscape:connector-curvature="0"
           d="m 273.14858,527.84517 c 0,0 0,0 9.6e-4,-7.3e-4 0.6765,-0.51624 1.46529,-0.83725 2.34791,-0.95346 1.30647,-0.12685 2.43416,0.15141 3.38538,0.82391 0.0588,0.0422 0.11356,0.0919 0.16043,0.14625 0.008,0.006 0.0152,0.0119 0.0229,0.0181 0.99424,0.81388 1.57514,1.86302 1.72722,3.11531 0.14973,1.37004 -0.19019,2.58054 -1.01131,3.60988 -0.88568,1.06284 -1.94813,1.62437 -3.22072,1.76773 -1.2786,0.13356 -2.4577,-0.23267 -3.51169,-1.08798 -1.01701,-0.83965 -1.59998,-1.92814 -1.73976,-3.24061 -0.11665,-1.26046 0.23016,-2.40652 1.02989,-3.42025 0.26168,-0.30865 0.52679,-0.56232 0.80876,-0.77813 z m 4.56274,1.25817 c -0.56645,-0.35691 -1.22573,-0.49348 -2.00944,-0.41735 -0.54181,0.0714 -1.02753,0.26652 -1.45599,0.59293 l 0,0 c -0.18113,0.13862 -0.35201,0.30351 -0.51125,0.49055 -0.48844,0.61937 -0.70135,1.31358 -0.628,2.09563 0.088,0.82693 0.44379,1.49284 1.08643,2.02258 0.67193,0.54523 1.38554,0.77359 2.17352,0.69116 0.80595,-0.0916 1.46685,-0.45497 2.01593,-1.11393 0.50801,-0.63738 0.71356,-1.38278 0.61723,-2.2632 -0.0903,-0.74481 -0.41924,-1.35778 -1.00243,-1.8633 -0.10978,-0.0622 -0.20649,-0.14207 -0.286,-0.23507 z"
           id="path3675" />
      </g>
    </g>
  </g>
  <style
     id="style3542"
     type="text/css">
	.st0{fill:none;stroke:#000000;stroke-width:34;stroke-miterlimit:10;}
</style>
</svg>
